<svg width="62" height="62" viewBox="0 0 62 62" fill="none" xmlns="http://www.w3.org/2000/svg">
<path d="M14.5781 1C15.0754 1 15.5523 1.19754 15.9039 1.54917C16.2556 1.90081 16.4531 2.37772 16.4531 2.875V4.75H46.4531V2.875C46.4531 2.37772 46.6507 1.90081 47.0023 1.54917C47.3539 1.19754 47.8308 1 48.3281 1C48.8254 1 49.3023 1.19754 49.6539 1.54917C50.0056 1.90081 50.2031 2.37772 50.2031 2.875V4.75H53.9531C55.9422 4.75 57.8499 5.54018 59.2564 6.9467C60.6629 8.35322 61.4531 10.2609 61.4531 12.25V53.5C61.4531 55.4891 60.6629 57.3968 59.2564 58.8033C57.8499 60.2098 55.9422 61 53.9531 61H8.95312C6.964 61 5.05635 60.2098 3.64982 58.8033C2.2433 57.3968 1.45313 55.4891 1.45312 53.5V12.25C1.45313 10.2609 2.2433 8.35322 3.64982 6.9467C5.05635 5.54018 6.964 4.75 8.95312 4.75H12.7031V2.875C12.7031 2.37772 12.9007 1.90081 13.2523 1.54917C13.6039 1.19754 14.0808 1 14.5781 1ZM5.20312 16V53.5C5.20312 54.4946 5.59821 55.4484 6.30147 56.1516C7.00474 56.8549 7.95856 57.25 8.95312 57.25H53.9531C54.9477 57.25 55.9015 56.8549 56.6048 56.1516C57.308 55.4484 57.7031 54.4946 57.7031 53.5V16H5.20312Z" fill="#E3A335" stroke="#E3A335"/>
</svg>
