<svg width="68" height="61" viewBox="0 0 68 61" fill="none" xmlns="http://www.w3.org/2000/svg">
<path d="M33.6944 5.68639L34.0328 5.99754L34.3712 5.68643C37.9112 2.4322 42.5442 0.625841 47.3527 0.625C49.8952 0.62698 52.4122 1.13147 54.7591 2.10947C57.106 3.08751 59.2365 4.51979 61.028 6.32397L61.0284 6.3244C68.6882 14.0199 68.6868 26.0206 61.0359 33.6715L36.3193 58.3881L36.2912 58.4162L36.268 58.4483C36.011 58.8028 35.6745 59.0921 35.2855 59.293C34.8972 59.4935 34.4673 59.6004 34.0303 59.605C32.9473 59.6042 32.0247 59.0514 31.5508 58.2179L31.5174 58.1592L31.4697 58.1115L7.0297 33.6715L7.02962 33.6714C-0.62139 26.0236 -0.625577 14.0197 7.02378 6.3378L7.02451 6.33707C8.81697 4.52953 10.9492 3.09431 13.2985 2.114C15.6477 1.13372 18.1675 0.627685 20.7131 0.625C25.5216 0.625219 30.1547 2.43165 33.6944 5.68639ZM57.0239 10.3323L57.0222 10.3306C51.7942 5.12688 42.9385 5.11255 37.7029 10.3378L37.7026 10.3381L36.0359 12.0048L36.0356 12.0051C35.7728 12.2684 35.4606 12.4773 35.1169 12.6198C34.7733 12.7623 34.4049 12.8357 34.0328 12.8357C33.6608 12.8357 33.2924 12.7623 32.9487 12.6198C32.605 12.4773 32.2929 12.2684 32.03 12.0051L32.0297 12.0048L30.363 10.3381C27.7583 7.7334 24.3321 6.29167 20.7128 6.29167C17.0937 6.29167 13.6546 7.73327 11.0302 10.3438L11.0284 10.3457C5.63799 15.7637 5.63368 24.2595 11.0358 29.6651L11.0359 29.6652L33.6793 52.3086L34.0328 52.6621L34.3864 52.3086L57.0297 29.6652L57.0298 29.6651C62.4323 24.2592 62.4273 15.7634 57.0239 10.3323Z" fill="#E3A335" stroke="#E3A335"/>
</svg>
