<svg width="71" height="69" viewBox="0 0 71 69" fill="none" xmlns="http://www.w3.org/2000/svg">
<path d="M43.746 62.5208L43.6051 62.4823L20.4385 56.149L20.0703 56.0483V55.6667V37.3333V36.8333H20.5703H25.9036H25.9926L26.0761 36.864L45.5693 44.0282C46.1982 44.24 46.7098 44.6875 47.1158 45.3103L47.1166 45.3114C47.5245 45.9409 47.737 46.6177 47.737 47.3333V47.8333H47.237H46.3203H46.3068L46.3068 47.8332C44.2437 47.7774 42.5981 47.6656 41.3779 47.4952C41.3779 47.4952 41.3779 47.4952 41.3778 47.4952L41.447 47C40.2514 46.8333 39.1814 46.6111 38.237 46.3333L43.746 62.5208ZM43.746 62.5208L43.8854 62.4775L63.7188 56.3108L64.3061 56.1282L64.0074 55.5905C63.6878 55.0152 63.2293 54.5295 62.6462 54.1308M43.746 62.5208L62.6462 54.1308M62.6462 54.1308C62.0306 53.7092 61.3335 53.5 60.5703 53.5H43.737C42.2459 53.5 41.0749 53.4446 40.2157 53.3372C39.3662 53.231 38.4846 53.018 37.5701 52.6952L37.5701 52.6951L37.5618 52.6923L32.8118 51.109L32.8118 51.1089L32.8028 51.1061C32.0461 50.8696 31.5187 50.4093 31.1901 49.7052C30.8546 48.9865 30.8064 48.254 31.0476 47.4825C31.2866 46.7175 31.7418 46.1723 32.4265 45.8176L62.6462 54.1308ZM66.737 40.1667H61.0703V19V18.7397L60.857 18.5904L44.1904 6.92372L43.9036 6.72301L43.6169 6.92372L26.9502 18.5904L26.737 18.7397V19V23.5H21.0703V19.0833C21.0703 18.0504 21.3019 17.1034 21.7622 16.2339C22.2241 15.3615 22.8638 14.6446 23.6869 14.0787L23.687 14.0788L23.6945 14.0734L40.3609 2.15687C41.4457 1.38202 42.6225 1 43.9036 1C45.1848 1 46.3616 1.38202 47.4464 2.15687L64.1128 14.0734L64.1128 14.0735L64.1204 14.0787C64.9435 14.6446 65.5832 15.3615 66.0451 16.2339C66.5054 17.1034 66.737 18.0504 66.737 19.0833V40.1667ZM20.7052 62.0185L20.2358 61.887L20.0924 62.353C19.6829 63.6838 18.8808 64.7585 17.6657 65.5866C16.4302 66.4271 15.1788 66.8333 13.9036 66.8333H7.23698C5.53718 66.8333 4.0952 66.2345 2.88387 65.0231C1.67013 63.8094 1.07031 62.3662 1.07031 60.6667V37.3333C1.07031 35.6338 1.67013 34.1906 2.88387 32.9769C4.0952 31.7656 5.53718 31.1667 7.23698 31.1667H25.9036C26.2566 31.1667 26.6104 31.2039 26.9656 31.2789C27.3356 31.3593 27.6761 31.4516 27.9879 31.5551L47.5634 38.8022L47.5661 38.8032C49.2976 39.4329 50.7011 40.532 51.7843 42.1156C52.8657 43.6999 53.4036 45.435 53.4036 47.3333V47.8333H53.9036H60.5703C63.2261 47.8333 65.4629 48.705 67.3106 50.4471C69.1421 52.1739 70.0703 54.4524 70.0703 57.3333C70.0703 58.468 69.7749 59.2927 69.2424 59.8714L69.2423 59.8715C68.6839 60.4786 67.7871 61.0113 66.5 61.4408C66.4985 61.4413 66.497 61.4418 66.4955 61.4423L45.6714 67.9394L45.6603 67.9428L45.6494 67.9468C45.0945 68.1486 44.5135 68.25 43.9036 68.25C43.2795 68.25 42.6854 68.1721 42.1197 68.0179C42.1193 68.0178 42.1189 68.0177 42.1185 68.0176L20.7052 62.0185ZM6.73698 60.6667V61.1667H7.23698H13.9036H14.4036V60.6667V37.3333V36.8333H13.9036H7.23698H6.73698V37.3333V60.6667ZM47.237 20.1667C46.9338 20.1667 46.6697 20.059 46.4239 19.8131C46.178 19.5672 46.0703 19.3032 46.0703 19C46.0703 18.6968 46.178 18.4328 46.4239 18.1869C46.6697 17.941 46.9338 17.8333 47.237 17.8333C47.5401 17.8333 47.8042 17.941 48.0501 18.1869C48.296 18.4328 48.4036 18.6968 48.4036 19C48.4036 19.3032 48.296 19.5672 48.0501 19.8131C47.8042 20.059 47.5401 20.1667 47.237 20.1667ZM40.5703 20.1667C40.2671 20.1667 40.0031 20.059 39.7572 19.8131C39.5113 19.5672 39.4036 19.3032 39.4036 19C39.4036 18.6968 39.5113 18.4328 39.7572 18.1869C40.0031 17.941 40.2671 17.8333 40.5703 17.8333C40.8735 17.8333 41.1376 17.941 41.3834 18.1869C41.6293 18.4328 41.737 18.6968 41.737 19C41.737 19.3032 41.6293 19.5672 41.3834 19.8131C41.1376 20.059 40.8735 20.1667 40.5703 20.1667ZM47.237 26.8333C46.9338 26.8333 46.6697 26.7257 46.4239 26.4798C46.178 26.2339 46.0703 25.9698 46.0703 25.6667C46.0703 25.3635 46.178 25.0994 46.4239 24.8536C46.6697 24.6077 46.9338 24.5 47.237 24.5C47.5401 24.5 47.8042 24.6077 48.0501 24.8536C48.296 25.0994 48.4036 25.3635 48.4036 25.6667C48.4036 25.9698 48.296 26.2339 48.0501 26.4798C47.8042 26.7257 47.5401 26.8333 47.237 26.8333ZM40.5703 26.8333C40.2671 26.8333 40.0031 26.7257 39.7572 26.4798C39.5113 26.2339 39.4036 25.9698 39.4036 25.6667C39.4036 25.3635 39.5113 25.0994 39.7572 24.8536C40.0031 24.6077 40.2671 24.5 40.5703 24.5C40.8735 24.5 41.1376 24.6077 41.3834 24.8536C41.6293 25.0994 41.737 25.3635 41.737 25.6667C41.737 25.9698 41.6293 26.2339 41.3834 26.4798C41.1376 26.7257 40.8735 26.8333 40.5703 26.8333Z" fill="#E3A335" stroke="#E3A335"/>
</svg>
