<svg width="61" height="66" viewBox="0 0 61 66" fill="none" xmlns="http://www.w3.org/2000/svg">
<path d="M57.1799 55.6H47.6133L42.7466 63.8C42.5953 64.0614 42.4041 64.2976 42.1799 64.5C41.5537 65.1036 40.7164 65.4386 39.8466 65.4333L57.1799 55.6ZM57.1799 55.6C57.7673 55.6023 58.3449 55.4494 58.8541 55.1567M57.1799 55.6L58.8541 55.1567M58.8541 55.1567C59.3634 54.8641 59.7863 54.442 60.0799 53.9333L58.8541 55.1567ZM59.6472 50.7506L59.6472 50.7506L59.6513 50.7575C59.9161 51.1982 60.056 51.7026 60.056 52.2167C60.056 52.7308 59.9161 53.2352 59.6513 53.6758L59.6513 53.6758L59.6469 53.6833C59.3973 54.1157 59.0378 54.4745 58.605 54.7232C58.1721 54.972 57.6812 55.102 57.1819 55.1H57.1799H47.6133H47.3286L47.1833 55.3448L42.3166 63.5448L42.3166 63.5448L42.3138 63.5496C42.1886 63.7659 42.0304 63.9614 41.8449 64.1289L41.8388 64.1343L41.8329 64.14C41.3007 64.6531 40.5889 64.9378 39.8496 64.9333H39.8466H39.4137C38.9997 64.8748 38.6036 64.7252 38.254 64.4954C37.8966 64.2604 37.5971 63.9476 37.3779 63.5804C37.3773 63.5794 37.3768 63.5785 37.3762 63.5775L30.9465 52.4171L30.5152 51.6684L30.081 52.4154L23.6477 63.482L23.6471 63.4829C23.4309 63.8567 23.1322 64.176 22.7737 64.4166C22.4243 64.6512 22.0271 64.8048 21.6112 64.8667L21.1819 64.8667C21.1813 64.8667 21.1807 64.8667 21.1801 64.8667C20.4513 64.8633 19.7517 64.5792 19.2269 64.0733L19.227 64.0732L19.218 64.0649C19.0196 63.8829 18.8482 63.6735 18.7089 63.4431C18.7086 63.4426 18.7083 63.4421 18.708 63.4416L13.8432 55.2448L13.6979 55H13.4133L3.8466 55L3.84461 55C3.3463 55.002 2.85628 54.8725 2.42399 54.6247C1.9917 54.3768 1.63242 54.0193 1.38241 53.5882C1.1324 53.1572 1.00049 52.6678 1 52.1695C0.999509 51.6712 1.13045 51.1816 1.37961 50.75L10.4126 35.1506L10.5533 34.9075L10.4191 34.6609C8.61076 31.3397 7.6687 27.6164 7.67993 23.8348V23.8333C7.67993 17.7776 10.0856 11.9698 14.3677 7.68773C18.6497 3.40565 24.4575 1 30.5133 1C36.569 1 42.3768 3.40565 46.6589 7.68773C50.941 11.9698 53.3466 17.7776 53.3466 23.8333L53.3466 23.8348C53.3578 27.6164 52.4158 31.3397 50.6075 34.6609L50.4732 34.9075L50.6139 35.1506L59.6472 50.7506ZM20.7173 55.8564L21.1515 56.5832L21.5784 55.8521L26.6784 47.1188L27.0364 46.5057L26.3385 46.3752C21.9539 45.555 17.9056 43.4684 14.6935 40.3733L14.233 39.9295L13.9134 40.4836L9.14678 48.7502L8.71446 49.5H9.57993H15.344C15.83 49.5054 16.3065 49.6357 16.7276 49.8785C17.1495 50.1217 17.5015 50.4695 17.7498 50.8883L17.7507 50.8897L20.7173 55.8564ZM45.685 49.5L45.6886 49.4999L51.4553 49.3999L52.3036 49.3852L51.8798 48.6502L47.1131 40.3836L46.7943 39.8306L46.3337 40.2726C43.1233 43.3534 39.0893 45.4384 34.7192 46.2756L34.0308 46.4075L34.3796 47.0154L39.4462 55.8488L39.8712 56.5897L40.3092 55.8564L43.2759 50.8897L43.2767 50.8883C43.525 50.4695 43.8771 50.1217 44.2989 49.8785C44.7208 49.6353 45.1981 49.5049 45.685 49.5ZM20.976 38.1069C23.799 39.9932 27.118 41 30.5133 41C35.0662 41 39.4326 39.1914 42.6519 35.972C45.8713 32.7526 47.6799 28.3862 47.6799 23.8333C47.6799 20.4381 46.6731 17.1191 44.7868 14.296C42.9005 11.473 40.2195 9.27271 37.0827 7.9734C33.9459 6.6741 30.4942 6.33414 27.1642 6.99652C23.8342 7.6589 20.7754 9.29387 18.3746 11.6947C15.9738 14.0955 14.3388 17.1543 13.6765 20.4843C13.0141 23.8143 13.354 27.2659 14.6533 30.4027C15.9526 33.5395 18.1529 36.2206 20.976 38.1069Z" fill="#E3A335" stroke="#E3A335"/>
</svg>
